HIERARCHY
ROOT Hips
{
	OFFSET 0.000000 97.420761 0.000000
	CHANNELS 6 Xposition Yposition Zposition Xrotation Yrotation Zrotation
	JOINT RightUpLeg
	{
		OFFSET -8.571318 0.002251 -0.000250
		CHANNELS 6 Xposition Yposition Zposition Xrotation Yrotation Zrotation
		JOINT RightLeg
		{
			OFFSET 0.000000 -44.326080 -0.000105
			CHANNELS 6 Xposition Yposition Zposition Xrotation Yrotation Zrotation
			JOINT RightFoot
			{
				OFFSET 0.000000 -43.324329 -0.000176
				CHANNELS 6 Xposition Yposition Zposition Xrotation Yrotation Zrotation
				JOINT RightToeBase
				{
					OFFSET 0.000000 -7.938133 18.050686
					CHANNELS 6 Xposition Yposition Zposition Xrotation Yrotation Zrotation
					End Site
					{
						OFFSET 0.000000 0.000000 19.719055
					}
				}
			}
		}
	}
	JOINT LeftUpLeg
	{
		OFFSET 8.571318 -0.000084 0.000009
		CHANNELS 6 Xposition Yposition Zposition Xrotation Yrotation Zrotation
		JOINT LeftLeg
		{
			OFFSET 0.000000 -44.326080 -0.000105
			CHANNELS 6 Xposition Yposition Zposition Xrotation Yrotation Zrotation
			JOINT LeftFoot
			{
				OFFSET 0.000000 -43.324329 -0.000176
				CHANNELS 6 Xposition Yposition Zposition Xrotation Yrotation Zrotation
				JOINT LeftToeBase
				{
					OFFSET 0.000000 -7.938133 18.050686
					CHANNELS 6 Xposition Yposition Zposition Xrotation Yrotation Zrotation
					End Site
					{
						OFFSET 0.000000 0.000000 19.719055
					}
				}
			}
		}
	}
	JOINT Spine
	{
		OFFSET 0.000000 10.422829 -1.158092
		CHANNELS 6 Xposition Yposition Zposition Xrotation Yrotation Zrotation
		JOINT Spine1
		{
			OFFSET 0.000000 11.587624 0.000000
			CHANNELS 3 Xrotation Yrotation Zrotation
			JOINT Spine2
			{
				OFFSET 0.000000 10.579559 -0.000443
				CHANNELS 6 Xposition Yposition Zposition Xrotation Yrotation Zrotation
				JOINT Spine3
				{
					OFFSET 0.000000 10.567749 -0.000444
					CHANNELS 6 Xposition Yposition Zposition Xrotation Yrotation Zrotation
					JOINT LeftShoulder
					{
						OFFSET 3.218383 8.290512 0.000000
						CHANNELS 6 Xposition Yposition Zposition Xrotation Yrotation Zrotation
						JOINT LeftArm
						{
							OFFSET 15.038529 0.000000 0.000000
							CHANNELS 3 Xrotation Yrotation Zrotation
							JOINT LeftForeArm
							{
								OFFSET 32.129166 0.000000 0.000000
								CHANNELS 3 Xrotation Yrotation Zrotation
								JOINT LeftHand
								{
									OFFSET 26.275406 0.000000 0.000000
									CHANNELS 3 Xrotation Yrotation Zrotation
									End Site
									{
										OFFSET 26.275406 0.000000 0.000000
									}
								}
							}
						}
					}
					JOINT RightShoulder
					{
						OFFSET -3.218383 8.290512 0.000000
						CHANNELS 6 Xposition Yposition Zposition Xrotation Yrotation Zrotation
						JOINT RightArm
						{
							OFFSET -15.038529 0.000000 0.000000
							CHANNELS 3 Xrotation Yrotation Zrotation
							JOINT RightForeArm
							{
								OFFSET -32.129166 0.000000 0.000000
								CHANNELS 3 Xrotation Yrotation Zrotation
								JOINT RightHand
								{
									OFFSET -26.275406 0.000000 0.000000
									CHANNELS 3 Xrotation Yrotation Zrotation
									End Site
									{
										OFFSET -26.275406 0.000000 0.000000
									}
								}
							}
						}
					}
					JOINT Neck
					{
						OFFSET 0.000000 14.789474 0.000000
						CHANNELS 6 Xposition Yposition Zposition Xrotation Yrotation Zrotation
						JOINT Head
						{
							OFFSET 0.000000 9.838806 0.000953
							CHANNELS 6 Xposition Yposition Zposition Xrotation Yrotation Zrotation
							End Site
							{
								OFFSET 0.000000 9.838806 0.000000
							}
						}
					}
				}
			}
		}
	}
}
MOTION
Frames: 4
Frame Time: 0.016667
0.000000 97.420761 0.000000 -0.000000 0.000000 -0.000000 -8.571318 0.002251 -0.000250 -0.000000 0.000000 -0.000000 0.000000 -44.326080 -0.000105 -0.000000 0.000000 -0.000000 0.000000 -43.324329 -0.000176 -0.000000 0.000000 -0.000000 0.000000 -7.938133 18.050686 -0.000000 0.000000 -0.000000 8.571318 -0.000084 0.000009 -0.000000 0.000000 -0.000000 0.000000 -44.326080 -0.000105 -0.000000 0.000000 -0.000000 0.000000 -43.324329 -0.000176 -0.000000 0.000000 -0.000000 0.000000 -7.938133 18.050686 -0.000000 0.000000 -0.000000 0.000000 10.422829 -1.158092 -0.000000 0.000000 -0.000000 -0.000000 0.000000 -0.000000 0.000000 10.579559 -0.000443 -0.000000 0.000000 -0.000000 0.000000 10.567749 -0.000444 -0.000000 0.000000 -0.000000 3.218383 8.290512 0.000000 -0.000000 0.000000 -0.000000 -0.000000 0.000000 -0.000000 -0.000000 0.000000 -0.000000 -0.000000 0.000000 -0.000000 -3.218383 8.290512 0.000000 -0.000000 0.000000 -0.000000 -0.000000 0.000000 -0.000000 -0.000000 0.000000 -0.000000 -0.000000 0.000000 -0.000000 0.000000 14.789474 0.000000 -0.000000 0.000000 -0.000000 0.000000 9.838806 0.000953 -0.000000 0.000000 -0.000000 
-88.868050 46.932098 49.371796 27.786410 60.934324 -21.827553 -8.571329 0.002253 -0.000259 -22.452299 1.532488 -12.975965 0.000005 -44.326080 -0.000101 119.535769 -1.982057 -1.018788 -0.000013 -43.324326 -0.000177 -0.687672 12.586672 -5.579970 0.000007 -7.938121 18.050688 -64.118237 0.624282 -3.778643 8.571314 -0.000082 0.000009 -19.954445 6.165526 7.693562 0.000005 -44.326077 -0.000093 111.251569 -0.366482 0.547624 -0.000006 -43.324322 -0.000174 0.018816 -6.729908 -18.446563 0.000003 -7.938131 18.050688 -94.796469 8.657173 -8.842261 -0.000008 10.422831 -1.158098 2.751260 2.817854 -1.246753 -4.498550 1.307386 -0.407856 -0.000002 10.579558 -0.000446 1.207756 1.307817 -0.406414 0.000001 10.567743 -0.000448 6.627927 0.946316 -0.399468 3.218383 8.290523 0.000002 -15.170786 -12.437845 -12.212031 -5.483021 14.583950 -69.732577 -46.347273 1.423823 -99.183827 -13.426769 -18.938523 6.633451 -3.218381 8.290505 -0.000006 -9.594946 -5.696618 11.954784 -19.347629 -16.041251 69.257988 -57.970595 62.800734 94.827102 -5.778279 37.003871 -9.991722 0.000003 14.789478 -0.000000 3.340779 -8.354964 4.345172 0.000003 9.838807 0.000950 -29.296782 -17.116022 3.391121 
-90.560165 46.113281 50.430676 28.914055 62.043813 -22.923430 -8.571317 0.002245 -0.000249 -22.567152 1.577559 -13.161178 0.000012 -44.326080 -0.000097 121.261198 -1.790443 -0.961037 -0.000003 -43.324333 -0.000178 -0.578560 12.605897 -5.684194 0.000007 -7.938134 18.050690 -64.518076 0.630661 -3.903019 8.571318 -0.000093 0.000007 -20.223690 6.196217 7.662305 0.000009 -44.326084 -0.000102 112.412722 -0.195883 0.356572 -0.000001 -43.324337 -0.000179 0.476495 -6.768281 -18.786155 0.000000 -7.938119 18.050688 -99.310110 9.294112 -8.310562 -0.000001 10.422818 -1.158091 2.764292 2.835060 -1.262555 -4.607155 1.316205 -0.412561 0.000003 10.579563 -0.000436 1.213276 1.316252 -0.412427 0.000007 10.567743 -0.000455 6.746436 0.951737 -0.405500 3.218382 8.290527 -0.000010 -15.171949 -12.568789 -12.463918 -5.532321 14.820366 -70.962503 -47.043085 2.208177 -100.633514 -13.722478 -19.260645 6.614165 -3.218379 8.290509 -0.000001 -9.524526 -5.694254 12.237664 -19.534372 -16.611462 70.494341 -60.846098 62.768393 98.146540 -5.872020 37.796242 -10.137044 -0.000001 14.789491 -0.000004 3.551908 -8.486666 4.432832 0.000006 9.838815 0.000964 -29.624074 -17.400387 3.394850 
-90.471382 46.291618 50.486160 28.609393 62.143616 -22.670795 -8.571309 0.002245 -0.000246 -22.247944 1.538660 -13.095984 0.000001 -44.326088 -0.000108 121.012278 -1.585482 -0.932724 0.000005 -43.324318 -0.000176 -0.477762 12.394598 -5.669738 0.000009 -7.938121 18.050688 -63.762835 0.588996 -3.973341 8.571324 -0.000095 0.000007 -20.054095 6.135807 7.490665 0.000003 -44.326084 -0.000105 111.789843 -0.062994 0.188001 -0.000001 -43.324333 -0.000174 0.844564 -6.685457 -18.762244 -0.000001 -7.938128 18.050694 -101.486407 9.567207 -7.887013 0.000009 10.422819 -1.158086 2.713158 2.794409 -1.246389 -4.629615 1.297325 -0.407824 -0.000005 10.579567 -0.000425 1.190814 1.297371 -0.407692 -0.000001 10.567757 -0.000458 6.729594 0.937979 -0.400611 3.218372 8.290505 -0.000014 -14.824512 -12.486614 -12.438020 -5.669565 14.762385 -70.877713 -47.165321 2.288937 -100.485675 -13.759198 -19.192601 6.515725 -3.218390 8.290519 -0.000015 -9.263085 -5.553366 12.277414 -19.581422 -16.697818 70.458900 -60.629055 62.767328 97.856721 -5.911702 37.841768 -10.086111 -0.000003 14.789474 -0.000014 3.696670 -8.452436 4.416486 0.000003 9.838827 0.000944 -29.348964 -17.328839 3.403955 
